<svg width="24" height="24" viewBox="0 0 24 24" fill="none" xmlns="http://www.w3.org/2000/svg">
<path d="M3.5 6C3.5 5.33696 3.76339 4.70107 4.23223 4.23223C4.70107 3.76339 5.33696 3.5 6 3.5H18C18.663 3.5 19.2989 3.76339 19.7678 4.23223C20.2366 4.70107 20.5 5.33696 20.5 6V18C20.5 18.663 20.2366 19.2989 19.7678 19.7678C19.2989 20.2366 18.663 20.5 18 20.5H6C5.33696 20.5 4.70107 20.2366 4.23223 19.7678C3.76339 19.2989 3.5 18.663 3.5 18V6ZM13.5 8C13.5 7.60218 13.342 7.22064 13.0607 6.93934C12.7794 6.65804 12.3978 6.5 12 6.5C11.6022 6.5 11.2206 6.65804 10.9393 6.93934C10.658 7.22064 10.5 7.60218 10.5 8V16C10.5 16.3978 10.658 16.7794 10.9393 17.0607C11.2206 17.342 11.6022 17.5 12 17.5C12.3978 17.5 12.7794 17.342 13.0607 17.0607C13.342 16.7794 13.5 16.3978 13.5 16V8ZM9.5 11C9.5 10.6022 9.34196 10.2206 9.06066 9.93934C8.77936 9.65804 8.39782 9.5 8 9.5C7.60218 9.5 7.22064 9.65804 6.93934 9.93934C6.65804 10.2206 6.5 10.6022 6.5 11V16C6.5 16.3978 6.65804 16.7794 6.93934 17.0607C7.22064 17.342 7.60218 17.5 8 17.5C8.39782 17.5 8.77936 17.342 9.06066 17.0607C9.34196 16.7794 9.5 16.3978 9.5 16V11ZM17.5 14C17.5 13.6022 17.342 13.2206 17.0607 12.9393C16.7794 12.658 16.3978 12.5 16 12.5C15.6022 12.5 15.2206 12.658 14.9393 12.9393C14.658 13.2206 14.5 13.6022 14.5 14V16C14.5 16.3978 14.658 16.7794 14.9393 17.0607C15.2206 17.342 15.6022 17.5 16 17.5C16.3978 17.5 16.7794 17.342 17.0607 17.0607C17.342 16.7794 17.5 16.3978 17.5 16V14Z" stroke="#3E444C"/>
</svg>
