<svg width="24" height="24" viewBox="0 0 24 24" fill="none" xmlns="http://www.w3.org/2000/svg">
<path d="M12.5 17V16.5H12H4C3.60218 16.5 3.22064 16.342 2.93934 16.0607C2.65804 15.7794 2.5 15.3978 2.5 15V5C2.5 4.16614 3.16614 3.5 4 3.5H20C20.3978 3.5 20.7794 3.65804 21.0607 3.93934C21.342 4.22064 21.5 4.60218 21.5 5V9.69098L21.2236 9.55279L18.5 8.19098V5V4.06574L17.7226 4.58397L15 6.39907L12.2774 4.58397L11.5 4.06574V5V8.19098L8.77639 9.55279L7.88197 10L8.77639 10.4472L11.5 11.809V15V15.9343L12.2774 15.416L15 13.6009L17.7226 15.416L18.5 15.9343V15V11.809L21.2236 10.4472L21.5 10.309V15C21.5 15.3978 21.342 15.7794 21.0607 16.0607C20.7794 16.342 20.3978 16.5 20 16.5H18H17.5V17V20.7929L15.3536 18.6464L15 18.2929L14.6464 18.6464L12.5 20.7929V17ZM4 4.5H3.5V5V7V7.5H4H9H9.5V7V5V4.5H9H4ZM4 8.5H3.5V9V11V11.5H4H7H7.5V11V9V8.5H7H4ZM4 12.5H3.5V13V15V15.5H4H9H9.5V15V13V12.5H9H4Z" stroke="#3E444C"/>
</svg>
