<svg width="24" height="24" viewBox="0 0 24 24" fill="none" xmlns="http://www.w3.org/2000/svg">
<path d="M15.3422 9.47642L15.342 9.47632L11.5922 6.85142C11.5922 6.8514 11.5921 6.85137 11.5921 6.85135C11.5921 6.85134 11.5921 6.85133 11.592 6.85132C11.4048 6.72018 11.1852 6.64291 10.957 6.62791C10.7289 6.6129 10.5009 6.66077 10.2981 6.76631C10.0952 6.87184 9.92521 7.031 9.80653 7.22646C9.68785 7.42192 9.62506 7.64619 9.625 7.87486V7.875V13.125V13.1251C9.62506 13.3538 9.68785 13.5781 9.80653 13.7735C9.92521 13.969 10.0952 14.1282 10.2981 14.2337C10.5009 14.3392 10.7289 14.3871 10.957 14.3721C11.1852 14.3571 11.4049 14.2798 11.5922 14.1486L15.342 11.5237L15.3422 11.5236C15.5067 11.4083 15.641 11.2552 15.7337 11.077C15.8265 10.8989 15.8749 10.701 15.875 10.5001V10.4999C15.8749 10.299 15.8265 10.1011 15.7337 9.92299C15.641 9.74484 15.5067 9.59166 15.3422 9.47642ZM3.04289 16.4571L2.68934 16.8107L3.04289 16.4571C2.85536 16.2696 2.75 16.0152 2.75 15.75V5.25C2.75 4.98478 2.85536 4.73043 3.04289 4.54289C3.23043 4.35536 3.48478 4.25 3.75 4.25H20.25C20.5152 4.25 20.7696 4.35536 20.9571 4.54289C21.1446 4.73043 21.25 4.98478 21.25 5.25V15.75C21.25 16.0152 21.1446 16.2696 20.9571 16.4571C20.7696 16.6446 20.5152 16.75 20.25 16.75H3.75C3.48478 16.75 3.23043 16.6446 3.04289 16.4571ZM15.2902 10.1539C15.2346 10.047 15.154 9.95508 15.0553 9.88594L15.375 10.5C15.375 10.3795 15.3459 10.2608 15.2902 10.1539ZM21.25 19.5C21.25 19.5663 21.2237 19.6299 21.1768 19.6768C21.1299 19.7237 21.0663 19.75 21 19.75H3C2.9337 19.75 2.87011 19.7237 2.82322 19.6768C2.77634 19.6299 2.75 19.5663 2.75 19.5C2.75 19.4337 2.77634 19.3701 2.82322 19.3232C2.87011 19.2763 2.93369 19.25 3 19.25H21C21.0663 19.25 21.1299 19.2763 21.1768 19.3232C21.2237 19.3701 21.25 19.4337 21.25 19.5Z" stroke="#3E444C"/>
</svg>
