<svg width="37" height="37" viewBox="0 0 37 37" fill="none" xmlns="http://www.w3.org/2000/svg">
<rect x="2.5" y="2.25574" width="32" height="32" rx="16" fill="#E4E4E4"/>
<rect x="2.5" y="2.25574" width="32" height="32" rx="16" stroke="#E4E4E4" stroke-width="4"/>
<g clip-path="url(#clip0_1057_3015)">
<path d="M19.1665 11.5891H14.4998C14.1462 11.5891 13.8071 11.7296 13.557 11.9796C13.307 12.2297 13.1665 12.5688 13.1665 12.9224V23.5891C13.1665 23.9427 13.307 24.2819 13.557 24.5319C13.8071 24.782 14.1462 24.9224 14.4998 24.9224H22.4998C22.8535 24.9224 23.1926 24.782 23.4426 24.5319C23.6927 24.2819 23.8332 23.9427 23.8332 23.5891V16.2558M19.1665 11.5891L23.8332 16.2558M19.1665 11.5891V16.2558H23.8332" stroke="#3E3E3E" stroke-width="1.33333" stroke-linecap="round" stroke-linejoin="round"/>
</g>
<defs>
<clipPath id="clip0_1057_3015">
<rect width="16" height="16" fill="white" transform="translate(10.5 10.2557)"/>
</clipPath>
</defs>
</svg>
