<svg width="24" height="20" viewBox="0 0 24 20" fill="none" xmlns="http://www.w3.org/2000/svg">
<path d="M4.26001 8.14698C3.98415 10.2525 3.82025 12.3711 3.76901 14.494C6.64787 15.6964 9.40426 17.1732 12 18.904C14.5961 17.1731 17.3528 15.6963 20.232 14.494C20.1789 12.3712 20.015 10.2527 19.741 8.14698M19.741 8.14698C20.6163 7.85231 21.5023 7.58098 22.399 7.33298C19.1352 5.04578 15.6517 3.08945 12 1.49298C8.34829 3.08976 4.86475 5.04643 1.60101 7.33398C2.49423 7.58078 3.38056 7.85188 4.25901 8.14698C6.92717 9.04541 9.51635 10.1632 12 11.489C14.4828 10.162 17.0727 9.04417 19.741 8.14698ZM6.75001 13C6.94893 13 7.13969 12.921 7.28034 12.7803C7.421 12.6397 7.50001 12.4489 7.50001 12.25C7.50001 12.0511 7.421 11.8603 7.28034 11.7197C7.13969 11.579 6.94893 11.5 6.75001 11.5C6.5511 11.5 6.36034 11.579 6.21968 11.7197C6.07903 11.8603 6.00001 12.0511 6.00001 12.25C6.00001 12.4489 6.07903 12.6397 6.21968 12.7803C6.36034 12.921 6.5511 13 6.75001 13ZM6.75001 13V9.32498C8.44637 8.26968 10.199 7.30758 12 6.44298M4.99301 17.993C5.55103 17.4364 5.99352 16.775 6.29505 16.0469C6.59658 15.3187 6.7512 14.5381 6.75001 13.75V12.25" stroke="#3E444C" stroke-width="1.5" stroke-linecap="round" stroke-linejoin="round"/>
</svg>
