<svg width="20" height="22" viewBox="0 0 20 22" fill="none" xmlns="http://www.w3.org/2000/svg">
<path d="M5.49997 2.5C3.94397 2.547 3.01697 2.72 2.37497 3.362C1.49597 4.242 1.49597 5.657 1.49597 8.488V14.994C1.49597 17.826 1.49597 19.241 2.37497 20.121C3.25297 21 4.66797 21 7.49597 21H12.496C15.325 21 16.739 21 17.617 20.12C18.497 19.241 18.497 17.826 18.497 14.994V8.488C18.497 5.658 18.497 4.242 17.617 3.362C16.976 2.72 16.048 2.547 14.492 2.5" stroke="#3E444C" stroke-width="1.5" stroke-linecap="round" stroke-linejoin="round"/>
<path d="M4.5 9H8.5M11.5 10C11.5 10 12 10 12.5 11C12.5 11 14.088 8.5 15.5 8M4.5 15H8.5M11.5 16C11.5 16 12 16 12.5 17C12.5 17 14.088 14.5 15.5 14M5.496 2.75C5.496 1.784 6.28 1 7.246 1H12.746C13.2101 1 13.6552 1.18437 13.9834 1.51256C14.3116 1.84075 14.496 2.28587 14.496 2.75C14.496 3.21413 14.3116 3.65925 13.9834 3.98744C13.6552 4.31563 13.2101 4.5 12.746 4.5H7.246C6.78187 4.5 6.33675 4.31563 6.00856 3.98744C5.68037 3.65925 5.496 3.21413 5.496 2.75Z" stroke="#3E444C" stroke-width="1.5" stroke-linecap="round" stroke-linejoin="round"/>
</svg>
