<svg width="24" height="24" viewBox="0 0 24 24" fill="none" xmlns="http://www.w3.org/2000/svg">
<path d="M22.5 13.5H1.5C1.10218 13.5 0.720644 13.658 0.43934 13.9393C0.158035 14.2206 0 14.6022 0 15L0 22C0 22.3978 0.158035 22.7794 0.43934 23.0607C0.720644 23.342 1.10218 23.5 1.5 23.5H22.5C22.8978 23.5 23.2794 23.342 23.5607 23.0607C23.842 22.7794 24 22.3978 24 22V15C24 14.6022 23.842 14.2206 23.5607 13.9393C23.2794 13.658 22.8978 13.5 22.5 13.5ZM15.5 16.75C15.4974 16.9481 15.4176 17.1374 15.2775 17.2775C15.1374 17.4176 14.9481 17.4974 14.75 17.5H9.25C9.05109 17.5 8.86032 17.421 8.71967 17.2803C8.57902 17.1397 8.5 16.9489 8.5 16.75C8.5 16.5511 8.57902 16.3603 8.71967 16.2197C8.86032 16.079 9.05109 16 9.25 16H14.75C14.9489 16 15.1397 16.079 15.2803 16.2197C15.421 16.3603 15.5 16.5511 15.5 16.75ZM3 12C3.26522 12 3.51957 11.8946 3.70711 11.7071C3.89464 11.5196 4 11.2652 4 11V8C4 7.86739 4.05268 7.74021 4.14645 7.64645C4.24021 7.55268 4.36739 7.5 4.5 7.5H11.88C11.9184 7.50203 11.956 7.51196 11.9904 7.52917C12.0248 7.54637 12.0553 7.57049 12.08 7.6L13.2 9.1C13.2931 9.2242 13.4139 9.325 13.5528 9.39443C13.6916 9.46385 13.8448 9.5 14 9.5H19.5C19.6326 9.5 19.7598 9.55268 19.8536 9.64645C19.9473 9.74021 20 9.86739 20 10V11C20 11.2652 20.1054 11.5196 20.2929 11.7071C20.4804 11.8946 20.7348 12 21 12C21.2652 12 21.5196 11.8946 21.7071 11.7071C21.8946 11.5196 22 11.2652 22 11V9.5C22 8.96957 21.7893 8.46086 21.4142 8.08579C21.0391 7.71071 20.5304 7.5 20 7.5H14.5L13.6 6.3C13.4137 6.05161 13.1721 5.85 12.8944 5.71115C12.6167 5.57229 12.3105 5.5 12 5.5H4C3.46957 5.5 2.96086 5.71071 2.58579 6.08579C2.21071 6.46086 2 6.96957 2 7.5V11C2 11.2652 2.10536 11.5196 2.29289 11.7071C2.48043 11.8946 2.73478 12 3 12ZM3 4.5C3.26522 4.5 3.51957 4.39464 3.70711 4.20711C3.89464 4.01957 4 3.76522 4 3.5V3C4 2.86739 4.05268 2.74021 4.14645 2.64645C4.24021 2.55268 4.36739 2.5 4.5 2.5H11.88C11.9184 2.50203 11.956 2.51196 11.9904 2.52917C12.0248 2.54637 12.0553 2.57049 12.08 2.6L13.2 4.1C13.2931 4.2242 13.4139 4.325 13.5528 4.39443C13.6916 4.46386 13.8448 4.5 14 4.5H20C20 4.76522 20.1054 5.01957 20.2929 5.20711C20.4804 5.39464 20.7348 5.5 21 5.5C21.2652 5.5 21.5196 5.39464 21.7071 5.20711C21.8946 5.01957 22 4.76522 22 4.5C22 3.96957 21.7893 3.46086 21.4142 3.08579C21.0391 2.71071 20.5304 2.5 20 2.5H14.5L13.6 1.3C13.4137 1.05161 13.1721 0.850001 12.8944 0.711146C12.6167 0.57229 12.3105 0.5 12 0.5H4C3.46957 0.5 2.96086 0.710714 2.58579 1.08579C2.21071 1.46086 2 1.96957 2 2.5V3.5C2 3.76522 2.10536 4.01957 2.29289 4.20711C2.48043 4.39464 2.73478 4.5 3 4.5Z" fill="#3E444C"/>
</svg>
