<svg width="16" height="20" viewBox="0 0 16 20" fill="none" xmlns="http://www.w3.org/2000/svg">
<path d="M0.799988 2.79999V17.2C0.799988 17.8365 1.05284 18.447 1.50293 18.8971C1.95302 19.3471 2.56347 19.6 3.19999 19.6H14.6C14.7591 19.6 14.9117 19.5368 15.0243 19.4243C15.1368 19.3117 15.2 19.1591 15.2 19C15.2 18.8409 15.1368 18.6883 15.0243 18.5757C14.9117 18.4632 14.7591 18.4 14.6 18.4H3.19999C2.88173 18.4 2.5765 18.2736 2.35146 18.0485C2.12642 17.8235 1.99999 17.5183 1.99999 17.2H14C14.3182 17.2 14.6235 17.0736 14.8485 16.8485C15.0736 16.6235 15.2 16.3183 15.2 16V2.79999C15.2 2.16347 14.9471 1.55302 14.497 1.10294C14.047 0.65285 13.4365 0.399994 12.8 0.399994H3.19999C2.56347 0.399994 1.95302 0.65285 1.50293 1.10294C1.05284 1.55302 0.799988 2.16347 0.799988 2.79999ZM12.8 1.59999C13.1182 1.59999 13.4235 1.72642 13.6485 1.95147C13.8736 2.17651 14 2.48173 14 2.79999V16H1.99999V2.79999C1.99999 2.48173 2.12642 2.17651 2.35146 1.95147C2.5765 1.72642 2.88173 1.59999 3.19999 1.59999H12.8ZM6.51199 5.69079C6.73999 5.45199 7.17199 5.19999 7.99999 5.19999C8.82799 5.19999 9.25999 5.45319 9.48799 5.69079C9.72799 5.94279 9.79999 6.23799 9.79999 6.39999C9.79999 6.94479 9.47599 7.23759 8.93239 7.50879C8.79689 7.57488 8.65964 7.6373 8.52079 7.69599L8.49439 7.70799C8.36274 7.76216 8.23305 7.821 8.10559 7.88439C7.95562 7.95604 7.81629 8.04812 7.69159 8.15799C7.60116 8.23896 7.52854 8.33784 7.47834 8.44836C7.42814 8.55888 7.40146 8.67862 7.39999 8.79999V9.99999C7.39999 10.1591 7.4632 10.3117 7.57572 10.4243C7.68825 10.5368 7.84086 10.6 7.99999 10.6C8.15912 10.6 8.31173 10.5368 8.42425 10.4243C8.53677 10.3117 8.59999 10.1591 8.59999 9.99999V8.97999L8.64439 8.95599C8.73439 8.91039 8.84359 8.8636 8.98399 8.80359L8.99719 8.79759C9.13759 8.73639 9.30079 8.66559 9.46759 8.58159C10.124 8.25759 11 7.65639 11 6.39999C11 5.96199 10.832 5.35719 10.352 4.85919C9.85999 4.34799 9.09199 3.99999 7.99999 3.99999C6.90799 3.99999 6.13999 4.34679 5.64799 4.85919C5.16799 5.35719 4.99999 5.96199 4.99999 6.39999C4.99999 6.55912 5.0632 6.71174 5.17572 6.82426C5.28825 6.93678 5.44086 6.99999 5.59999 6.99999C5.75912 6.99999 5.91173 6.93678 6.02425 6.82426C6.13677 6.71174 6.19999 6.55912 6.19999 6.39999C6.19999 6.23799 6.27199 5.94279 6.51199 5.69079ZM7.99999 13.6C8.23868 13.6 8.4676 13.5052 8.63638 13.3364C8.80517 13.1676 8.89999 12.9387 8.89999 12.7C8.89999 12.4613 8.80517 12.2324 8.63638 12.0636C8.4676 11.8948 8.23868 11.8 7.99999 11.8C7.76129 11.8 7.53238 11.8948 7.36359 12.0636C7.19481 12.2324 7.09999 12.4613 7.09999 12.7C7.09999 12.9387 7.19481 13.1676 7.36359 13.3364C7.53238 13.5052 7.76129 13.6 7.99999 13.6Z" fill="black"/>
</svg>
