<svg width="18" height="18" viewBox="0 0 18 18" fill="none" xmlns="http://www.w3.org/2000/svg">
<path d="M5 18C4.54 18 4.15567 17.846 3.847 17.538C3.53833 17.23 3.384 16.8457 3.384 16.385V5C3.384 4.54 3.53833 4.15567 3.847 3.847C4.15567 3.53833 4.54 3.384 5 3.384H16.385C16.845 3.384 17.2293 3.53833 17.538 3.847C17.8467 4.15567 18.0007 4.54 18 5V16.385C18 16.845 17.846 17.2293 17.538 17.538C17.23 17.8467 16.8457 18.0007 16.385 18H5ZM5 17H10.192V13.096H4.385V16.385C4.385 16.5643 4.44267 16.7117 4.558 16.827C4.67333 16.9423 4.82067 17 5 17ZM11.192 17H16.385C16.5643 17 16.7117 16.9423 16.827 16.827C16.9423 16.7117 17 16.5643 17 16.385V13.096H11.192V17ZM0 14.23V1.617C0 1.15633 0.154333 0.772 0.463 0.464C0.771667 0.156 1.15567 0.00133333 1.615 0H14.231V1H1.616C1.436 1 1.28833 1.05767 1.173 1.173C1.05767 1.28833 1 1.436 1 1.616V14.23H0ZM4.385 12.096H10.192V8.173H4.385V12.096ZM11.192 12.096H17V8.173H11.192V12.096ZM4.385 7.173H17V5C17 4.82 16.9423 4.67267 16.827 4.558C16.7117 4.44267 16.5643 4.385 16.385 4.385H5C4.82 4.385 4.67267 4.44267 4.558 4.558C4.44267 4.67333 4.385 4.82067 4.385 5V7.173Z" fill="black"/>
</svg>
