<svg width="18" height="15" viewBox="0 0 18 15" fill="none" xmlns="http://www.w3.org/2000/svg">
<path d="M7 6.38501C6.17533 6.38501 5.469 6.09101 4.881 5.50301C4.293 4.91501 3.99933 4.20901 4 3.38501C4.00067 2.56101 4.29433 1.85435 4.881 1.26501C5.46767 0.675681 6.174 0.382681 7 0.386014C7.826 0.389348 8.53233 0.682681 9.119 1.26601C9.70567 1.84935 9.99933 2.55601 10 3.38601C10.0007 4.21601 9.707 4.92201 9.119 5.50401C8.531 6.08601 7.82467 6.37901 7 6.38501ZM0 13.616V11.97C0 11.51 0.116 11.112 0.348 10.776C0.58 10.44 0.907667 10.1727 1.331 9.97401C2.14233 9.57935 2.979 9.25435 3.841 8.99901C4.70233 8.74435 5.75533 8.61701 7 8.61701H7.235C7.29633 8.61701 7.37067 8.62068 7.458 8.62801C7.38867 8.80001 7.33367 8.96835 7.293 9.13301L7.177 9.61701H7C5.88067 9.61701 4.90467 9.73168 4.072 9.96101C3.23933 10.1903 2.48467 10.487 1.808 10.851C1.504 11.011 1.29333 11.179 1.176 11.355C1.05867 11.5303 1 11.7353 1 11.97V12.617H7.3C7.34867 12.7743 7.40833 12.9437 7.479 13.125C7.54967 13.3063 7.62733 13.4703 7.712 13.617L0 13.616ZM13.212 14.097L13.066 12.943C12.7887 12.8857 12.5273 12.7887 12.282 12.652C12.0367 12.5153 11.8157 12.342 11.619 12.132L10.535 12.562L10.112 11.843L11.031 11.151C10.921 10.8663 10.866 10.573 10.866 10.271C10.866 9.96901 10.921 9.67535 11.031 9.39001L10.131 8.65901L10.554 7.93901L11.619 8.38901C11.8023 8.17901 12.02 8.00901 12.272 7.87901C12.524 7.74901 12.7887 7.65501 13.066 7.59701L13.212 6.44301H14.058L14.185 7.59701C14.4617 7.65501 14.726 7.75001 14.978 7.88201C15.23 8.01401 15.4477 8.18701 15.631 8.40101L16.696 7.94001L17.119 8.67001L16.219 9.40101C16.3297 9.68235 16.385 9.97501 16.385 10.279C16.385 10.583 16.3297 10.8737 16.219 11.151L17.139 11.843L16.716 12.563L15.631 12.132C15.435 12.342 15.214 12.5153 14.968 12.652C14.722 12.7887 14.461 12.8857 14.185 12.943L14.058 14.097H13.212ZM13.617 12.078C14.115 12.078 14.5403 11.9007 14.893 11.546C15.2457 11.1913 15.4223 10.7653 15.423 10.268C15.4237 9.77068 15.2467 9.34535 14.892 8.99201C14.5373 8.63868 14.1113 8.46201 13.614 8.46201C13.116 8.46201 12.6903 8.63935 12.337 8.99401C11.9837 9.34868 11.807 9.77468 11.807 10.272C11.807 10.7693 11.9843 11.1947 12.339 11.548C12.6937 11.9013 13.1197 12.078 13.617 12.078ZM7 5.38401C7.55 5.38401 8.021 5.18835 8.413 4.79701C8.805 4.40568 9.00067 3.93501 9 3.38501C8.99933 2.83501 8.80367 2.36401 8.413 1.97201C8.02233 1.58001 7.55133 1.38435 7 1.38501C6.44867 1.38568 5.978 1.58135 5.588 1.97201C5.198 2.36268 5.002 2.83368 5 3.38501C4.998 3.93635 5.194 4.40701 5.588 4.79701C5.982 5.18701 6.45267 5.38301 7 5.38501" fill="#3E444C"/>
</svg>
