<svg width="38" height="39" viewBox="0 0 38 39" fill="none" xmlns="http://www.w3.org/2000/svg">
<circle cx="18.9695" cy="19.4164" r="18.9695" fill="#DC13FF" fill-opacity="0.2"/>
<path d="M28.2224 13.4207L19.5348 10.5248C19.3861 10.4752 19.2255 10.4752 19.0769 10.5248L10.3892 13.4207C10.245 13.4687 10.1196 13.5609 10.0308 13.6842C9.94196 13.8075 9.89415 13.9556 9.89417 14.1075V21.3473C9.89417 21.5393 9.97044 21.7234 10.1062 21.8592C10.242 21.9949 10.4261 22.0712 10.6181 22.0712C10.8101 22.0712 10.9943 21.9949 11.1301 21.8592C11.2658 21.7234 11.3421 21.5393 11.3421 21.3473V15.112L14.3819 16.1247C13.5743 17.4295 13.3174 19.0014 13.6678 20.4954C14.0182 21.9894 14.9471 23.2833 16.2506 24.0929C14.6217 24.7318 13.2136 25.8875 12.1837 27.4675C12.1302 27.5471 12.093 27.6366 12.0743 27.7307C12.0556 27.8248 12.0558 27.9217 12.0749 28.0157C12.094 28.1097 12.1316 28.199 12.1855 28.2784C12.2394 28.3578 12.3085 28.4257 12.3889 28.4781C12.4692 28.5305 12.5592 28.5664 12.6536 28.5837C12.748 28.6011 12.8448 28.5995 12.9386 28.579C13.0323 28.5586 13.1211 28.5198 13.1997 28.4647C13.2783 28.4097 13.3451 28.3396 13.3964 28.2585C14.7602 26.1662 16.914 24.9671 19.3058 24.9671C21.6976 24.9671 23.8514 26.1662 25.2152 28.2585C25.3214 28.4163 25.4854 28.526 25.6719 28.5638C25.8583 28.6017 26.0521 28.5646 26.2114 28.4607C26.3707 28.3568 26.4828 28.1944 26.5233 28.0085C26.5638 27.8227 26.5295 27.6283 26.4279 27.4675C25.398 25.8875 23.9845 24.7318 22.361 24.0929C23.6632 23.2833 24.5913 21.9903 24.9416 20.4974C25.2919 19.0045 25.0359 17.4336 24.2297 16.1292L28.2224 14.7989C28.3666 14.7509 28.492 14.6587 28.5809 14.5354C28.6698 14.4121 28.7176 14.264 28.7176 14.1121C28.7176 13.9601 28.6698 13.812 28.5809 13.6887C28.492 13.5654 28.3666 13.4732 28.2224 13.4252V13.4207ZM23.6496 19.1753C23.6498 19.8621 23.4872 20.5391 23.1751 21.1508C22.863 21.7625 22.4103 22.2915 21.8541 22.6944C21.298 23.0973 20.6542 23.3625 19.9757 23.4684C19.2972 23.5743 18.6032 23.5179 17.9508 23.3036C17.2983 23.0894 16.7059 22.7235 16.2222 22.236C15.7385 21.7485 15.3773 21.1533 15.1682 20.4992C14.9591 19.845 14.9081 19.1507 15.0193 18.473C15.1306 17.7953 15.4009 17.1537 15.8081 16.6007L19.0769 17.6867C19.2255 17.7362 19.3861 17.7362 19.5348 17.6867L22.8035 16.6007C23.3535 17.3464 23.65 18.2487 23.6496 19.1753Z" fill="#DC13FF"/>
</svg>
