<svg width="24" height="24" viewBox="0 0 24 24" fill="none" xmlns="http://www.w3.org/2000/svg">
<path d="M8.18941 7.99377L8.5342 8.10832L11.9205 9.23332L11.9209 9.23348C11.9723 9.25059 12.0277 9.25059 12.0791 9.23348L12.0795 9.23332L15.4658 8.10832L15.8103 7.99385L16.0258 8.28604C16.659 9.14455 17.0004 10.1833 17 11.2501L8.18941 7.99377ZM8.18941 7.99377L7.97396 8.28632M8.18941 7.99377L7.97396 8.28632M7.97396 8.28632C7.50521 8.92282 7.19406 9.66138 7.06602 10.4414C6.93799 11.2215 6.99672 12.0207 7.23741 12.7737C7.47809 13.5266 7.89386 14.2118 8.45061 14.7729C9.00737 15.334 9.68923 15.7552 10.4403 16.0018C11.1913 16.2484 11.9901 16.3134 12.7711 16.1915C13.5521 16.0696 14.2931 15.7642 14.9333 15.3005C15.5734 14.8367 16.0945 14.2278 16.4538 13.5237C16.813 12.8197 17.0002 12.0406 17 11.2502L7.97396 8.28632ZM12.0791 2.76278L12.0791 2.76278L20.7372 5.64882V5.65359L21.0792 5.7675C21.129 5.78409 21.1723 5.81592 21.203 5.85849C21.2337 5.90106 21.2502 5.95221 21.2502 6.00469C21.2502 6.05717 21.2337 6.10832 21.203 6.15089C21.1723 6.19346 21.129 6.22529 21.0792 6.24188L21.0791 6.24189L16.9429 7.62001L16.3434 7.81975L16.6756 8.35725C17.4412 9.59594 17.6843 11.0877 17.3516 12.5054C17.019 13.923 16.1377 15.1509 14.901 15.9198L14.0558 16.4452L14.9819 16.8096C16.5615 17.4313 17.9443 18.5577 18.9568 20.1097C18.9909 20.1647 19.0022 20.2309 18.9884 20.2943C18.9744 20.3584 18.9357 20.4145 18.8807 20.4504C18.8257 20.4863 18.7588 20.4991 18.6944 20.486C18.6309 20.4731 18.5749 20.4361 18.5382 20.3827C17.0378 18.0835 14.654 16.75 12 16.75C9.34451 16.75 6.95952 18.085 5.45925 20.3867L5.45921 20.3866L5.45547 20.3926C5.43777 20.4206 5.41467 20.4448 5.38754 20.4638C5.3604 20.4828 5.32975 20.4962 5.29738 20.5033C5.26501 20.5103 5.23156 20.5109 5.19897 20.5049C5.16638 20.4989 5.13531 20.4865 5.10756 20.4684L4.83441 20.8872L5.10756 20.4684C5.07981 20.4503 5.05594 20.4269 5.03732 20.3994C5.01871 20.372 5.00573 20.3412 4.99914 20.3087C4.99254 20.2763 4.99247 20.2428 4.99892 20.2103C5.00537 20.1778 5.01822 20.1469 5.03672 20.1194L5.03676 20.1195L5.04076 20.1133C6.05381 18.559 7.43195 17.4318 9.01757 16.8099L9.94585 16.4458L9.09882 15.9196C7.86097 15.1508 6.97883 13.9221 6.64611 12.5034C6.31338 11.0847 6.55727 9.5919 7.32421 8.35285L7.65701 7.81518L7.05709 7.61532L3.90803 6.56626L3.25 6.34704V7.04063V13.5C3.25 13.5663 3.22366 13.6299 3.17678 13.6768C3.12989 13.7237 3.0663 13.75 3 13.75C2.9337 13.75 2.87011 13.7237 2.82322 13.6768C2.77634 13.6299 2.75 13.5663 2.75 13.5V6V5.99997C2.75 5.94749 2.7665 5.89635 2.79718 5.85378C2.82786 5.81121 2.87115 5.77938 2.92093 5.76278C2.92093 5.76278 2.92093 5.76278 2.92094 5.76278L11.9209 2.76278L11.9209 2.76278C11.9723 2.74567 12.0277 2.74567 12.0791 2.76278Z" stroke="#3E444C"/>
</svg>
