<svg width="40" height="41" viewBox="0 0 40 41" fill="none" xmlns="http://www.w3.org/2000/svg">
<circle cx="19.6514" cy="20.5" r="19.6514" fill="#5113FF" fill-opacity="0.2"/>
<path d="M29.2372 14.2884L20.2372 11.2884C20.0832 11.2371 19.9168 11.2371 19.7628 11.2884L10.7628 14.2884C10.6135 14.3382 10.4836 14.4337 10.3915 14.5614C10.2995 14.6891 10.25 14.8426 10.25 15V22.5C10.25 22.6989 10.329 22.8897 10.4697 23.0303C10.6103 23.171 10.8011 23.25 11 23.25C11.1989 23.25 11.3897 23.171 11.5303 23.0303C11.671 22.8897 11.75 22.6989 11.75 22.5V16.0406L14.8991 17.0897C14.0624 18.4414 13.7963 20.0698 14.1593 21.6175C14.5223 23.1652 15.4846 24.5056 16.835 25.3444C15.1475 26.0062 13.6888 27.2034 12.6219 28.8403C12.5664 28.9228 12.5278 29.0154 12.5085 29.1129C12.4891 29.2104 12.4894 29.3108 12.5091 29.4082C12.5289 29.5056 12.5678 29.5981 12.6237 29.6803C12.6795 29.7626 12.7512 29.8329 12.8344 29.8872C12.9177 29.9415 13.0109 29.9787 13.1086 29.9966C13.2064 30.0146 13.3067 30.0129 13.4039 29.9918C13.501 29.9706 13.5929 29.9303 13.6743 29.8733C13.7557 29.8163 13.825 29.7437 13.8781 29.6597C15.2909 27.4922 17.5222 26.25 20 26.25C22.4778 26.25 24.7091 27.4922 26.1219 29.6597C26.2319 29.8232 26.4018 29.9368 26.5949 29.976C26.788 30.0152 26.9888 29.9768 27.1539 29.8692C27.3189 29.7615 27.435 29.5932 27.4769 29.4007C27.5189 29.2082 27.4834 29.0069 27.3781 28.8403C26.3112 27.2034 24.8469 26.0062 23.165 25.3444C24.5141 24.5056 25.4755 23.1661 25.8384 21.6196C26.2013 20.073 25.9361 18.4457 25.1009 17.0944L29.2372 15.7162C29.3866 15.6665 29.5165 15.571 29.6086 15.4433C29.7006 15.3156 29.7502 15.1621 29.7502 15.0047C29.7502 14.8472 29.7006 14.6938 29.6086 14.5661C29.5165 14.4384 29.3866 14.3429 29.2372 14.2931V14.2884ZM24.5 20.25C24.5002 20.9614 24.3317 21.6627 24.0084 22.2965C23.6851 22.9302 23.2161 23.4782 22.6399 23.8955C22.0638 24.3129 21.3969 24.5877 20.694 24.6974C19.9911 24.8071 19.2722 24.7486 18.5962 24.5267C17.9203 24.3048 17.3066 23.9257 16.8056 23.4207C16.3045 22.9157 15.9303 22.2991 15.7137 21.6214C15.4971 20.9438 15.4442 20.2244 15.5594 19.5224C15.6747 18.8203 15.9547 18.1556 16.3766 17.5828L19.7628 18.7078C19.9168 18.7591 20.0832 18.7591 20.2372 18.7078L23.6234 17.5828C24.1932 18.3553 24.5004 19.2901 24.5 20.25Z" fill="#5113FF"/>
</svg>
