<svg width="37" height="37" viewBox="0 0 37 37" fill="none" xmlns="http://www.w3.org/2000/svg">
<rect x="2.5" y="2.25586" width="32" height="32" rx="16" fill="#E4E4E4"/>
<rect x="2.5" y="2.25586" width="32" height="32" rx="16" stroke="#E4E4E4" stroke-width="4"/>
<g clip-path="url(#clip0_141_3708)">
<path d="M15.1666 11.5891V24.9224M21.8333 11.5891V24.9224M11.8333 18.2558H25.1666M11.8333 14.9224H15.1666M11.8333 21.5891H15.1666M21.8333 21.5891H25.1666M21.8333 14.9224H25.1666M13.2866 11.5891H23.7133C24.5159 11.5891 25.1666 12.2398 25.1666 13.0424V23.4691C25.1666 24.2718 24.5159 24.9224 23.7133 24.9224H13.2866C12.4839 24.9224 11.8333 24.2718 11.8333 23.4691V13.0424C11.8333 12.2398 12.4839 11.5891 13.2866 11.5891Z" stroke="#3E3E3E" stroke-width="1.33333" stroke-linecap="round" stroke-linejoin="round"/>
</g>
<defs>
<clipPath id="clip0_141_3708">
<rect width="16" height="16" fill="white" transform="translate(10.5 10.2559)"/>
</clipPath>
</defs>
</svg>
