<svg width="37" height="37" viewBox="0 0 37 37" fill="none" xmlns="http://www.w3.org/2000/svg">
<rect x="2.5" y="2.25586" width="32" height="32" rx="16" fill="#FFFBE8"/>
<rect x="2.5" y="2.25586" width="32" height="32" rx="16" stroke="#FFFBE8" stroke-width="4"/>
<path d="M13.8333 24.2559H23.1667C23.903 24.2559 24.5 23.6589 24.5 22.9225V13.5892C24.5 12.8528 23.903 12.2559 23.1667 12.2559H13.8333C13.097 12.2559 12.5 12.8528 12.5 13.5892V22.9225C12.5 23.6589 13.097 24.2559 13.8333 24.2559ZM13.8333 24.2559L21.1667 16.9225L24.5 20.2559M17.1667 15.9225C17.1667 16.4748 16.719 16.9225 16.1667 16.9225C15.6144 16.9225 15.1667 16.4748 15.1667 15.9225C15.1667 15.3702 15.6144 14.9225 16.1667 14.9225C16.719 14.9225 17.1667 15.3702 17.1667 15.9225Z" stroke="#FED500" stroke-width="1.33333" stroke-linecap="round" stroke-linejoin="round"/>
</svg>
