<svg width="24" height="24" viewBox="0 0 24 24" fill="none" xmlns="http://www.w3.org/2000/svg">
<path d="M19.3435 4.375H7.2073L16.4515 2.79677L16.4515 2.79684L16.4595 2.79533C16.8037 2.73076 17.1575 2.73656 17.4994 2.81238C17.8413 2.8882 18.1643 3.03248 18.4489 3.23651C18.7335 3.44054 18.9739 3.7001 19.1555 3.99954C19.2284 4.1197 19.2912 4.24529 19.3435 4.375ZM4.4767 6.5C4.47684 6.5 4.47697 6.5 4.47711 6.5H19.476C19.4762 6.5 19.4763 6.5 19.4764 6.5C20.1392 6.50083 20.7747 6.7645 21.2434 7.23319C21.7122 7.70198 21.9758 8.33758 21.9766 9.00055V17.9995C21.9758 18.6624 21.7122 19.298 21.2434 19.7668C20.7746 20.2356 20.139 20.4993 19.476 20.5H4.47711C3.81414 20.4993 3.17854 20.2356 2.70976 19.7668C2.24103 19.2981 1.97736 18.6626 1.97656 17.9997V9.00029C1.97736 8.33742 2.24103 7.70192 2.70975 7.23319C3.17845 6.7645 3.81388 6.50083 4.4767 6.5ZM16.1389 15.1629C16.4678 15.3827 16.8544 15.5 17.25 15.5C17.7804 15.5 18.2891 15.2893 18.6642 14.9142C19.0393 14.5391 19.25 14.0304 19.25 13.5C19.25 13.1044 19.1327 12.7178 18.9129 12.3889C18.6932 12.06 18.3808 11.8036 18.0154 11.6522C17.6499 11.5009 17.2478 11.4613 16.8598 11.5384C16.4719 11.6156 16.1155 11.8061 15.8358 12.0858C15.5561 12.3655 15.3656 12.7219 15.2884 13.1098C15.2113 13.4978 15.2509 13.8999 15.4022 14.2654C15.5536 14.6308 15.81 14.9432 16.1389 15.1629Z" stroke="#3E444C"/>
<path d="M6.31646 4.63942C6.46166 4.63028 6.59506 4.62335 6.71386 4.61809C6.69248 4.63601 6.67177 4.65481 6.65176 4.67448C6.43935 4.88335 6.33808 5.16023 6.34085 5.43088C6.34608 5.94369 6.71561 6.40274 7.30441 6.48643C7.274 6.54384 7.23882 6.60192 7.20388 6.65518C7.17547 6.69849 7.14994 6.73451 7.13192 6.75916C7.12432 6.76955 7.11816 6.77778 7.11381 6.78354L3.70572 10.6491L2 11.3983V7.5C2 6.61244 2.48664 5.21013 4.10734 4.90371C4.90876 4.75343 5.71117 4.67752 6.31646 4.63942Z" stroke="#3E444C"/>
</svg>
